<svg width="21" height="19" viewBox="0 0 21 19" fill="none" xmlns="http://www.w3.org/2000/svg">
<path d="M1.88533 18.6667C1.34789 18.6667 0.8995 18.487 0.540167 18.1277C0.180833 17.7683 0.000777778 17.3196 0 16.7813V5.38534C0 4.84789 0.180056 4.3995 0.540167 4.04017C0.900278 3.68084 1.34828 3.50078 1.88417 3.5H7V1.88417C7 1.3475 7.18006 0.899114 7.54017 0.539002C7.90028 0.178891 8.34867 -0.000775263 8.88533 2.51437e-06H12.1158C12.6525 2.51437e-06 13.1009 0.179669 13.461 0.539002C13.8211 0.898336 14.0008 1.34672 14 1.88417V3.5H19.1158C19.6525 3.5 20.1005 3.68006 20.4598 4.04017C20.8192 4.40028 20.9992 4.84867 21 5.38534V16.7825C21 17.3192 20.8199 17.7676 20.4598 18.1277C20.0997 18.4878 19.6517 18.6674 19.1158 18.6667H1.88533ZM8.16667 3.5H12.8333V1.88417C12.8333 1.70528 12.7587 1.54078 12.6093 1.39067C12.46 1.24056 12.2955 1.16589 12.1158 1.16667H8.88417C8.70528 1.16667 8.54078 1.24134 8.39067 1.39067C8.24056 1.54 8.16589 1.7045 8.16667 1.88417V3.5ZM19.8333 12.25H12.8333V14H8.16667V12.25H1.16667V16.7825C1.16667 16.9614 1.24133 17.1259 1.39067 17.276C1.54 17.4261 1.7045 17.5008 1.88417 17.5H19.1158C19.2947 17.5 19.4592 17.4253 19.6093 17.276C19.7594 17.1267 19.8341 16.9618 19.8333 16.7813V12.25ZM9.33333 12.8333H11.6667V10.5H9.33333V12.8333ZM1.16667 11.0833H8.16667V9.33334H12.8333V11.0833H19.8333V5.38534C19.8333 5.20567 19.7587 5.04078 19.6093 4.89067C19.46 4.74056 19.2955 4.66589 19.1158 4.66667H1.88417C1.70528 4.66667 1.54078 4.74134 1.39067 4.89067C1.24056 5.04 1.16589 5.20489 1.16667 5.38534V11.0833Z" fill="#317470"/>
</svg>
