<svg width="17" height="18" viewBox="0 0 17 18" fill="none" xmlns="http://www.w3.org/2000/svg">
<path d="M15.5833 1.38462H12.75V0H11.3333V1.38462H5.66667V0H4.25V1.38462H1.41667C0.6375 1.38462 0 2.00769 0 2.76923V16.6154C0 17.3769 0.6375 18 1.41667 18H15.5833C16.3625 18 17 17.3769 17 16.6154V2.76923C17 2.00769 16.3625 1.38462 15.5833 1.38462ZM15.5833 16.6154H1.41667V6.92308H15.5833V16.6154ZM15.5833 5.53846H1.41667V2.76923H4.25V4.15385H5.66667V2.76923H11.3333V4.15385H12.75V2.76923H15.5833V5.53846Z" fill="#383C3E"/>
</svg>
