<svg width="27" height="29" viewBox="0 0 27 29" fill="none" xmlns="http://www.w3.org/2000/svg">
<path d="M10.6222 4.55502V4.90541H16.2874V4.55502C16.2874 3.81159 15.989 3.09862 15.4578 2.57294C14.9266 2.04726 14.2061 1.75193 13.4548 1.75193C12.7036 1.75193 11.9831 2.04726 11.4519 2.57294C10.9207 3.09862 10.6222 3.81159 10.6222 4.55502ZM8.85186 4.90541V4.55502C8.85186 3.34695 9.33681 2.18837 10.2 1.33413C11.0633 0.479902 12.234 0 13.4548 0C14.6756 0 15.8464 0.479902 16.7096 1.33413C17.5728 2.18837 18.0578 3.34695 18.0578 4.55502V4.90541H26.0245C26.2592 4.90541 26.4844 4.99769 26.6504 5.16197C26.8164 5.32625 26.9097 5.54905 26.9097 5.78137C26.9097 6.01369 26.8164 6.2365 26.6504 6.40077C26.4844 6.56505 26.2592 6.65734 26.0245 6.65734H23.9588L22.5425 23.375C22.4349 24.6445 21.8492 25.8277 20.9016 26.69C19.954 27.5524 18.7135 28.031 17.4261 28.0309H9.48353C8.19625 28.0308 6.95599 27.5521 6.0085 26.6898C5.06102 25.8275 4.47546 24.6444 4.36786 23.375L2.95156 6.65734H0.885186C0.65042 6.65734 0.42527 6.56505 0.259265 6.40077C0.0932604 6.2365 0 6.01369 0 5.78137C0 5.54905 0.0932604 5.32625 0.259265 5.16197C0.42527 4.99769 0.65042 4.90541 0.885186 4.90541H8.85186ZM6.13186 23.2285C6.20235 24.0602 6.58599 24.8353 7.20676 25.4003C7.82753 25.9653 8.64013 26.2789 9.48353 26.279H17.4261C18.2696 26.2791 19.0824 25.9655 19.7033 25.4005C20.3243 24.8355 20.708 24.0603 20.7785 23.2285L22.1821 6.65734H4.7276L6.13186 23.2285ZM11.6845 11.3875C11.6845 11.2725 11.6616 11.1586 11.6171 11.0523C11.5726 10.9461 11.5074 10.8495 11.4252 10.7681C11.343 10.6868 11.2454 10.6223 11.138 10.5783C11.0306 10.5342 10.9155 10.5116 10.7993 10.5116C10.683 10.5116 10.5679 10.5342 10.4605 10.5783C10.3531 10.6223 10.2555 10.6868 10.1733 10.7681C10.0912 10.8495 10.0259 10.9461 9.98146 11.0523C9.93698 11.1586 9.91408 11.2725 9.91408 11.3875V21.5487C9.91408 21.6638 9.93698 21.7777 9.98146 21.884C10.0259 21.9902 10.0912 22.0868 10.1733 22.1681C10.2555 22.2495 10.3531 22.314 10.4605 22.358C10.5679 22.4021 10.683 22.4247 10.7993 22.4247C10.9155 22.4247 11.0306 22.4021 11.138 22.358C11.2454 22.314 11.343 22.2495 11.4252 22.1681C11.5074 22.0868 11.5726 21.9902 11.6171 21.884C11.6616 21.7777 11.6845 21.6638 11.6845 21.5487V11.3875ZM16.1104 10.5116C16.599 10.5116 16.9956 10.904 16.9956 11.3875V21.5487C16.9956 21.7811 16.9023 22.0039 16.7363 22.1681C16.5703 22.3324 16.3451 22.4247 16.1104 22.4247C15.8756 22.4247 15.6505 22.3324 15.4845 22.1681C15.3185 22.0039 15.2252 21.7811 15.2252 21.5487V11.3875C15.2252 10.904 15.6218 10.5116 16.1104 10.5116Z" fill="#9A9A9A"/>
</svg>
