<svg width="33" height="33" viewBox="0 0 33 33" fill="none" xmlns="http://www.w3.org/2000/svg">
<path d="M16.5 30.9375C12.6709 30.9375 8.9987 29.4164 6.29115 26.7089C3.58359 24.0013 2.0625 20.3291 2.0625 16.5C2.0625 12.6709 3.58359 8.9987 6.29115 6.29115C8.9987 3.58359 12.6709 2.0625 16.5 2.0625C20.3291 2.0625 24.0013 3.58359 26.7089 6.29115C29.4164 8.9987 30.9375 12.6709 30.9375 16.5C30.9375 20.3291 29.4164 24.0013 26.7089 26.7089C24.0013 29.4164 20.3291 30.9375 16.5 30.9375ZM16.5 33C20.8761 33 25.0729 31.2616 28.1673 28.1673C31.2616 25.0729 33 20.8761 33 16.5C33 12.1239 31.2616 7.92709 28.1673 4.83274C25.0729 1.73839 20.8761 0 16.5 0C12.1239 0 7.92709 1.73839 4.83274 4.83274C1.73839 7.92709 0 12.1239 0 16.5C0 20.8761 1.73839 25.0729 4.83274 28.1673C7.92709 31.2616 12.1239 33 16.5 33Z" fill="#FD6565"/>
<path d="M14.4414 22.6879C14.4414 22.417 14.4948 22.1488 14.5984 21.8986C14.7021 21.6484 14.854 21.421 15.0455 21.2295C15.237 21.038 15.4644 20.886 15.7146 20.7824C15.9649 20.6787 16.2331 20.6254 16.5039 20.6254C16.7748 20.6254 17.043 20.6787 17.2932 20.7824C17.5434 20.886 17.7708 21.038 17.9623 21.2295C18.1538 21.421 18.3058 21.6484 18.4094 21.8986C18.5131 22.1488 18.5664 22.417 18.5664 22.6879C18.5664 23.2349 18.3491 23.7595 17.9623 24.1463C17.5755 24.5331 17.0509 24.7504 16.5039 24.7504C15.9569 24.7504 15.4323 24.5331 15.0455 24.1463C14.6587 23.7595 14.4414 23.2349 14.4414 22.6879ZM14.6435 10.3026C14.6161 10.0424 14.6436 9.77931 14.7244 9.53044C14.8052 9.28157 14.9373 9.05246 15.1124 8.85798C15.2874 8.6635 15.5014 8.50799 15.7404 8.40154C15.9794 8.29509 16.2381 8.24008 16.4998 8.24008C16.7614 8.24008 17.0202 8.29509 17.2592 8.40154C17.4982 8.50799 17.7122 8.6635 17.8872 8.85798C18.0622 9.05246 18.1944 9.28157 18.2752 9.53044C18.356 9.77931 18.3835 10.0424 18.356 10.3026L17.6342 17.5358C17.6099 17.8199 17.4799 18.0846 17.2698 18.2775C17.0598 18.4704 16.785 18.5774 16.4998 18.5774C16.2146 18.5774 15.9398 18.4704 15.7297 18.2775C15.5197 18.0846 15.3897 17.8199 15.3654 17.5358L14.6435 10.3026Z" fill="#FD6565"/>
</svg>
