<svg width="28" height="27" viewBox="0 0 28 27" fill="none" xmlns="http://www.w3.org/2000/svg">
<path d="M17.382 0H0V17.382H10.0633V26.9879H27.4453V9.60586H17.382V0ZM7.5649 4.1168L4.69389 12.3104H6.63262L7.09953 10.9781H10.0633V15.5523H1.82969V1.82969H15.5523V9.60586H11.7404L9.81742 4.1168H7.5649ZM9.64142 9.14844H7.74061L8.69102 6.43604L9.64142 9.14844ZM25.6156 11.4355V25.1582H11.893V11.4355H25.6156Z" fill="white"/>
<path d="M17.235 19.6973C17.41 19.9783 17.6027 20.248 17.8119 20.5046C17.1486 20.8623 16.3954 21.0415 15.5521 21.0421V22.8718C16.9325 22.8718 18.1657 22.5054 19.2115 21.7955C20.2573 22.5054 21.4906 22.8718 22.8709 22.8718V21.0421C22.0294 21.0421 21.2762 20.8628 20.6112 20.5042C20.8204 20.2477 21.0131 19.9782 21.188 19.6973C21.7154 18.8399 22.1032 17.9043 22.337 16.9253H23.3283V15.0956H20.1264V13.7233H18.2967V15.0956H15.0947V16.9253H16.0861C16.3198 17.9043 16.7077 18.8399 17.235 19.6973ZM20.4426 16.9253C20.2533 17.5585 19.9823 18.1644 19.6364 18.7275C19.5071 18.9352 19.3652 19.1347 19.2115 19.3249C19.069 19.1487 18.9367 18.9645 18.8153 18.7731C18.4553 18.1974 18.1745 17.5759 17.9803 16.9253H20.4426Z" fill="white"/>
</svg>
