<svg width="19" height="22" viewBox="0 0 19 22" fill="none" xmlns="http://www.w3.org/2000/svg">
<path d="M9.50279 6.33011C8.61354 6.33011 7.76071 6.67807 7.13191 7.29744C6.50311 7.91681 6.14986 8.75686 6.14986 9.63278C6.14986 10.5087 6.50311 11.3487 7.13191 11.9681C7.76071 12.5875 8.61354 12.9354 9.50279 12.9354C10.392 12.9354 11.2449 12.5875 11.8737 11.9681C12.5025 11.3487 12.8557 10.5087 12.8557 9.63278C12.8557 8.75686 12.5025 7.91681 11.8737 7.29744C11.2449 6.67807 10.392 6.33011 9.50279 6.33011ZM7.54691 9.63278C7.54691 9.12183 7.75298 8.6318 8.11978 8.2705C8.48658 7.9092 8.98406 7.70622 9.50279 7.70622C10.0215 7.70622 10.519 7.9092 10.8858 8.2705C11.2526 8.6318 11.4587 9.12183 11.4587 9.63278C11.4587 10.1437 11.2526 10.6338 10.8858 10.9951C10.519 11.3564 10.0215 11.5593 9.50279 11.5593C8.98406 11.5593 8.48658 11.3564 8.11978 10.9951C7.75298 10.6338 7.54691 10.1437 7.54691 9.63278ZM16.7647 15.4124L11.1273 21.3077C10.9183 21.5263 10.6661 21.7005 10.3863 21.8195C10.1064 21.9386 9.80483 22 9.5 22C9.19517 22 8.89356 21.9386 8.61371 21.8195C8.33386 21.7005 8.08169 21.5263 7.87271 21.3077L2.23531 15.4124H2.25654L2.24704 15.4014L2.23531 15.3877C0.788258 13.7021 -0.00392823 11.565 1.46477e-05 9.35756C1.46477e-05 4.18943 4.25321 0 9.5 0C14.7468 0 19 4.18943 19 9.35756C19.0039 11.565 18.2117 13.7021 16.7647 15.3877L16.753 15.4014L16.7435 15.4124H16.7647ZM15.6789 14.5213C16.9241 13.0807 17.6064 11.2496 17.6029 9.35756C17.6029 4.9496 13.9751 1.37611 9.5 1.37611C5.02495 1.37611 1.39707 4.9496 1.39707 9.35756C1.39358 11.2496 2.07586 13.0807 3.3211 14.5213L3.49322 14.7211L8.88977 20.3637C8.96813 20.4457 9.0627 20.511 9.16764 20.5556C9.27258 20.6003 9.38569 20.6233 9.5 20.6233C9.61431 20.6233 9.72742 20.6003 9.83236 20.5556C9.9373 20.511 10.0319 20.4457 10.1102 20.3637L15.5068 14.7211L15.6789 14.5213Z" fill="#317470"/>
</svg>
