<svg width="27" height="29" viewBox="0 0 27 29" fill="none" xmlns="http://www.w3.org/2000/svg">
<path d="M20.8348 9.53394C20.8348 7.53581 20.0411 5.61953 18.6282 4.20664C17.2153 2.79375 15.299 2 13.3009 2C11.3028 2 9.38649 2.79375 7.97361 4.20664C6.56072 5.61953 5.76697 7.53581 5.76697 9.53394C5.76697 18.3235 2 20.8348 2 20.8348H24.6018C24.6018 20.8348 20.8348 18.3235 20.8348 9.53394Z" stroke="white" stroke-width="3" stroke-linecap="round" stroke-linejoin="round"/>
<path d="M15.4735 25.8574C15.2527 26.238 14.9359 26.5539 14.5546 26.7735C14.1734 26.993 13.7411 27.1086 13.3012 27.1086C12.8612 27.1086 12.429 26.993 12.0478 26.7735C11.6665 26.5539 11.3497 26.238 11.1289 25.8574" stroke="white" stroke-width="3" stroke-linecap="round" stroke-linejoin="round"/>
</svg>
